<?xml version="1.0" encoding="utf-8" standalone="no"?>
<!DOCTYPE svg PUBLIC "-//W3C//DTD SVG 1.1//EN"
  "http://www.w3.org/Graphics/SVG/1.1/DTD/svg11.dtd">
<svg xmlns:xlink="http://www.w3.org/1999/xlink" width="720pt" height="432pt" viewBox="0 0 720 432" xmlns="http://www.w3.org/2000/svg" version="1.1">
 <metadata>
  <rdf:RDF xmlns:dc="http://purl.org/dc/elements/1.1/" xmlns:cc="http://creativecommons.org/ns#" xmlns:rdf="http://www.w3.org/1999/02/22-rdf-syntax-ns#">
   <cc:Work>
    <dc:type rdf:resource="http://purl.org/dc/dcmitype/StillImage"/>
    <dc:date>2025-08-23T20:36:34.470517</dc:date>
    <dc:format>image/svg+xml</dc:format>
    <dc:creator>
     <cc:Agent>
      <dc:title>Matplotlib v3.10.5, https://matplotlib.org/</dc:title>
     </cc:Agent>
    </dc:creator>
   </cc:Work>
  </rdf:RDF>
 </metadata>
 <defs>
  <style type="text/css">*{stroke-linejoin: round; stroke-linecap: butt}</style>
 </defs>
 <g id="figure_1">
  <g id="patch_1">
   <path d="M 0 432 
L 720 432 
L 720 0 
L 0 0 
z
" style="fill: #ffffff"/>
  </g>
  <g id="axes_1">
   <g id="patch_2">
    <path d="M 44.57 372.080703 
L 709.2 372.080703 
L 709.2 26.88 
L 44.57 26.88 
z
" style="fill: #ffffff"/>
   </g>
   <g id="matplotlib.axis_1">
    <g id="xtick_1">
     <g id="line2d_1">
      <path d="M 67.887665 372.080703 
L 67.887665 26.88 
" clip-path="url(#p23ddfbc4f4)" style="fill: none; stroke-dasharray: 1.85,0.8; stroke-dashoffset: 0; stroke: #b0b0b0; stroke-width: 0.5"/>
     </g>
     <g id="line2d_2">
      <defs>
       <path id="m44cd169b17" d="M 0 0 
L 0 3.5 
" style="stroke: #000000; stroke-width: 0.8"/>
      </defs>
      <g>
       <use xlink:href="#m44cd169b17" x="67.887665" y="372.080703" style="stroke: #000000; stroke-width: 0.8"/>
      </g>
     </g>
     <g id="text_1">
      <!-- 08-23 10 -->
      <g transform="translate(26.260304 404.968539) rotate(-25) scale(0.1 -0.1)">
       <defs>
        <path id="DejaVuSans-30" d="M 2034 4250 
Q 1547 4250 1301 3770 
Q 1056 3291 1056 2328 
Q 1056 1369 1301 889 
Q 1547 409 2034 409 
Q 2525 409 2770 889 
Q 3016 1369 3016 2328 
Q 3016 3291 2770 3770 
Q 2525 4250 2034 4250 
z
M 2034 4750 
Q 2819 4750 3233 4129 
Q 3647 3509 3647 2328 
Q 3647 1150 3233 529 
Q 2819 -91 2034 -91 
Q 1250 -91 836 529 
Q 422 1150 422 2328 
Q 422 3509 836 4129 
Q 1250 4750 2034 4750 
z
" transform="scale(0.015625)"/>
        <path id="DejaVuSans-38" d="M 2034 2216 
Q 1584 2216 1326 1975 
Q 1069 1734 1069 1313 
Q 1069 891 1326 650 
Q 1584 409 2034 409 
Q 2484 409 2743 651 
Q 3003 894 3003 1313 
Q 3003 1734 2745 1975 
Q 2488 2216 2034 2216 
z
M 1403 2484 
Q 997 2584 770 2862 
Q 544 3141 544 3541 
Q 544 4100 942 4425 
Q 1341 4750 2034 4750 
Q 2731 4750 3128 4425 
Q 3525 4100 3525 3541 
Q 3525 3141 3298 2862 
Q 3072 2584 2669 2484 
Q 3125 2378 3379 2068 
Q 3634 1759 3634 1313 
Q 3634 634 3220 271 
Q 2806 -91 2034 -91 
Q 1263 -91 848 271 
Q 434 634 434 1313 
Q 434 1759 690 2068 
Q 947 2378 1403 2484 
z
M 1172 3481 
Q 1172 3119 1398 2916 
Q 1625 2713 2034 2713 
Q 2441 2713 2670 2916 
Q 2900 3119 2900 3481 
Q 2900 3844 2670 4047 
Q 2441 4250 2034 4250 
Q 1625 4250 1398 4047 
Q 1172 3844 1172 3481 
z
" transform="scale(0.015625)"/>
        <path id="DejaVuSans-2d" d="M 313 2009 
L 1997 2009 
L 1997 1497 
L 313 1497 
L 313 2009 
z
" transform="scale(0.015625)"/>
        <path id="DejaVuSans-32" d="M 1228 531 
L 3431 531 
L 3431 0 
L 469 0 
L 469 531 
Q 828 903 1448 1529 
Q 2069 2156 2228 2338 
Q 2531 2678 2651 2914 
Q 2772 3150 2772 3378 
Q 2772 3750 2511 3984 
Q 2250 4219 1831 4219 
Q 1534 4219 1204 4116 
Q 875 4013 500 3803 
L 500 4441 
Q 881 4594 1212 4672 
Q 1544 4750 1819 4750 
Q 2544 4750 2975 4387 
Q 3406 4025 3406 3419 
Q 3406 3131 3298 2873 
Q 3191 2616 2906 2266 
Q 2828 2175 2409 1742 
Q 1991 1309 1228 531 
z
" transform="scale(0.015625)"/>
        <path id="DejaVuSans-33" d="M 2597 2516 
Q 3050 2419 3304 2112 
Q 3559 1806 3559 1356 
Q 3559 666 3084 287 
Q 2609 -91 1734 -91 
Q 1441 -91 1130 -33 
Q 819 25 488 141 
L 488 750 
Q 750 597 1062 519 
Q 1375 441 1716 441 
Q 2309 441 2620 675 
Q 2931 909 2931 1356 
Q 2931 1769 2642 2001 
Q 2353 2234 1838 2234 
L 1294 2234 
L 1294 2753 
L 1863 2753 
Q 2328 2753 2575 2939 
Q 2822 3125 2822 3475 
Q 2822 3834 2567 4026 
Q 2313 4219 1838 4219 
Q 1578 4219 1281 4162 
Q 984 4106 628 3988 
L 628 4550 
Q 988 4650 1302 4700 
Q 1616 4750 1894 4750 
Q 2613 4750 3031 4423 
Q 3450 4097 3450 3541 
Q 3450 3153 3228 2886 
Q 3006 2619 2597 2516 
z
" transform="scale(0.015625)"/>
        <path id="DejaVuSans-20" transform="scale(0.015625)"/>
        <path id="DejaVuSans-31" d="M 794 531 
L 1825 531 
L 1825 4091 
L 703 3866 
L 703 4441 
L 1819 4666 
L 2450 4666 
L 2450 531 
L 3481 531 
L 3481 0 
L 794 0 
L 794 531 
z
" transform="scale(0.015625)"/>
       </defs>
       <use xlink:href="#DejaVuSans-30"/>
       <use xlink:href="#DejaVuSans-38" transform="translate(63.623047 0)"/>
       <use xlink:href="#DejaVuSans-2d" transform="translate(127.246094 0)"/>
       <use xlink:href="#DejaVuSans-32" transform="translate(163.330078 0)"/>
       <use xlink:href="#DejaVuSans-33" transform="translate(226.953125 0)"/>
       <use xlink:href="#DejaVuSans-20" transform="translate(290.576172 0)"/>
       <use xlink:href="#DejaVuSans-31" transform="translate(322.363281 0)"/>
       <use xlink:href="#DejaVuSans-30" transform="translate(385.986328 0)"/>
      </g>
     </g>
    </g>
    <g id="xtick_2">
     <g id="line2d_3">
      <path d="M 125.594739 372.080703 
L 125.594739 26.88 
" clip-path="url(#p23ddfbc4f4)" style="fill: none; stroke-dasharray: 1.85,0.8; stroke-dashoffset: 0; stroke: #b0b0b0; stroke-width: 0.5"/>
     </g>
     <g id="line2d_4">
      <g>
       <use xlink:href="#m44cd169b17" x="125.594739" y="372.080703" style="stroke: #000000; stroke-width: 0.8"/>
      </g>
     </g>
     <g id="text_2">
      <!-- 08-23 11 -->
      <g transform="translate(83.967377 404.968539) rotate(-25) scale(0.1 -0.1)">
       <use xlink:href="#DejaVuSans-30"/>
       <use xlink:href="#DejaVuSans-38" transform="translate(63.623047 0)"/>
       <use xlink:href="#DejaVuSans-2d" transform="translate(127.246094 0)"/>
       <use xlink:href="#DejaVuSans-32" transform="translate(163.330078 0)"/>
       <use xlink:href="#DejaVuSans-33" transform="translate(226.953125 0)"/>
       <use xlink:href="#DejaVuSans-20" transform="translate(290.576172 0)"/>
       <use xlink:href="#DejaVuSans-31" transform="translate(322.363281 0)"/>
       <use xlink:href="#DejaVuSans-31" transform="translate(385.986328 0)"/>
      </g>
     </g>
    </g>
    <g id="xtick_3">
     <g id="line2d_5">
      <path d="M 183.301813 372.080703 
L 183.301813 26.88 
" clip-path="url(#p23ddfbc4f4)" style="fill: none; stroke-dasharray: 1.85,0.8; stroke-dashoffset: 0; stroke: #b0b0b0; stroke-width: 0.5"/>
     </g>
     <g id="line2d_6">
      <g>
       <use xlink:href="#m44cd169b17" x="183.301813" y="372.080703" style="stroke: #000000; stroke-width: 0.8"/>
      </g>
     </g>
     <g id="text_3">
      <!-- 08-23 12 -->
      <g transform="translate(141.674451 404.968539) rotate(-25) scale(0.1 -0.1)">
       <use xlink:href="#DejaVuSans-30"/>
       <use xlink:href="#DejaVuSans-38" transform="translate(63.623047 0)"/>
       <use xlink:href="#DejaVuSans-2d" transform="translate(127.246094 0)"/>
       <use xlink:href="#DejaVuSans-32" transform="translate(163.330078 0)"/>
       <use xlink:href="#DejaVuSans-33" transform="translate(226.953125 0)"/>
       <use xlink:href="#DejaVuSans-20" transform="translate(290.576172 0)"/>
       <use xlink:href="#DejaVuSans-31" transform="translate(322.363281 0)"/>
       <use xlink:href="#DejaVuSans-32" transform="translate(385.986328 0)"/>
      </g>
     </g>
    </g>
    <g id="xtick_4">
     <g id="line2d_7">
      <path d="M 241.008886 372.080703 
L 241.008886 26.88 
" clip-path="url(#p23ddfbc4f4)" style="fill: none; stroke-dasharray: 1.85,0.8; stroke-dashoffset: 0; stroke: #b0b0b0; stroke-width: 0.5"/>
     </g>
     <g id="line2d_8">
      <g>
       <use xlink:href="#m44cd169b17" x="241.008886" y="372.080703" style="stroke: #000000; stroke-width: 0.8"/>
      </g>
     </g>
     <g id="text_4">
      <!-- 08-23 13 -->
      <g transform="translate(199.381524 404.968539) rotate(-25) scale(0.1 -0.1)">
       <use xlink:href="#DejaVuSans-30"/>
       <use xlink:href="#DejaVuSans-38" transform="translate(63.623047 0)"/>
       <use xlink:href="#DejaVuSans-2d" transform="translate(127.246094 0)"/>
       <use xlink:href="#DejaVuSans-32" transform="translate(163.330078 0)"/>
       <use xlink:href="#DejaVuSans-33" transform="translate(226.953125 0)"/>
       <use xlink:href="#DejaVuSans-20" transform="translate(290.576172 0)"/>
       <use xlink:href="#DejaVuSans-31" transform="translate(322.363281 0)"/>
       <use xlink:href="#DejaVuSans-33" transform="translate(385.986328 0)"/>
      </g>
     </g>
    </g>
    <g id="xtick_5">
     <g id="line2d_9">
      <path d="M 298.71596 372.080703 
L 298.71596 26.88 
" clip-path="url(#p23ddfbc4f4)" style="fill: none; stroke-dasharray: 1.85,0.8; stroke-dashoffset: 0; stroke: #b0b0b0; stroke-width: 0.5"/>
     </g>
     <g id="line2d_10">
      <g>
       <use xlink:href="#m44cd169b17" x="298.71596" y="372.080703" style="stroke: #000000; stroke-width: 0.8"/>
      </g>
     </g>
     <g id="text_5">
      <!-- 08-23 14 -->
      <g transform="translate(257.088598 404.968539) rotate(-25) scale(0.1 -0.1)">
       <defs>
        <path id="DejaVuSans-34" d="M 2419 4116 
L 825 1625 
L 2419 1625 
L 2419 4116 
z
M 2253 4666 
L 3047 4666 
L 3047 1625 
L 3713 1625 
L 3713 1100 
L 3047 1100 
L 3047 0 
L 2419 0 
L 2419 1100 
L 313 1100 
L 313 1709 
L 2253 4666 
z
" transform="scale(0.015625)"/>
       </defs>
       <use xlink:href="#DejaVuSans-30"/>
       <use xlink:href="#DejaVuSans-38" transform="translate(63.623047 0)"/>
       <use xlink:href="#DejaVuSans-2d" transform="translate(127.246094 0)"/>
       <use xlink:href="#DejaVuSans-32" transform="translate(163.330078 0)"/>
       <use xlink:href="#DejaVuSans-33" transform="translate(226.953125 0)"/>
       <use xlink:href="#DejaVuSans-20" transform="translate(290.576172 0)"/>
       <use xlink:href="#DejaVuSans-31" transform="translate(322.363281 0)"/>
       <use xlink:href="#DejaVuSans-34" transform="translate(385.986328 0)"/>
      </g>
     </g>
    </g>
    <g id="xtick_6">
     <g id="line2d_11">
      <path d="M 356.423033 372.080703 
L 356.423033 26.88 
" clip-path="url(#p23ddfbc4f4)" style="fill: none; stroke-dasharray: 1.85,0.8; stroke-dashoffset: 0; stroke: #b0b0b0; stroke-width: 0.5"/>
     </g>
     <g id="line2d_12">
      <g>
       <use xlink:href="#m44cd169b17" x="356.423033" y="372.080703" style="stroke: #000000; stroke-width: 0.8"/>
      </g>
     </g>
     <g id="text_6">
      <!-- 08-23 15 -->
      <g transform="translate(314.795672 404.968539) rotate(-25) scale(0.1 -0.1)">
       <defs>
        <path id="DejaVuSans-35" d="M 691 4666 
L 3169 4666 
L 3169 4134 
L 1269 4134 
L 1269 2991 
Q 1406 3038 1543 3061 
Q 1681 3084 1819 3084 
Q 2600 3084 3056 2656 
Q 3513 2228 3513 1497 
Q 3513 744 3044 326 
Q 2575 -91 1722 -91 
Q 1428 -91 1123 -41 
Q 819 9 494 109 
L 494 744 
Q 775 591 1075 516 
Q 1375 441 1709 441 
Q 2250 441 2565 725 
Q 2881 1009 2881 1497 
Q 2881 1984 2565 2268 
Q 2250 2553 1709 2553 
Q 1456 2553 1204 2497 
Q 953 2441 691 2322 
L 691 4666 
z
" transform="scale(0.015625)"/>
       </defs>
       <use xlink:href="#DejaVuSans-30"/>
       <use xlink:href="#DejaVuSans-38" transform="translate(63.623047 0)"/>
       <use xlink:href="#DejaVuSans-2d" transform="translate(127.246094 0)"/>
       <use xlink:href="#DejaVuSans-32" transform="translate(163.330078 0)"/>
       <use xlink:href="#DejaVuSans-33" transform="translate(226.953125 0)"/>
       <use xlink:href="#DejaVuSans-20" transform="translate(290.576172 0)"/>
       <use xlink:href="#DejaVuSans-31" transform="translate(322.363281 0)"/>
       <use xlink:href="#DejaVuSans-35" transform="translate(385.986328 0)"/>
      </g>
     </g>
    </g>
    <g id="xtick_7">
     <g id="line2d_13">
      <path d="M 414.130107 372.080703 
L 414.130107 26.88 
" clip-path="url(#p23ddfbc4f4)" style="fill: none; stroke-dasharray: 1.85,0.8; stroke-dashoffset: 0; stroke: #b0b0b0; stroke-width: 0.5"/>
     </g>
     <g id="line2d_14">
      <g>
       <use xlink:href="#m44cd169b17" x="414.130107" y="372.080703" style="stroke: #000000; stroke-width: 0.8"/>
      </g>
     </g>
     <g id="text_7">
      <!-- 08-23 16 -->
      <g transform="translate(372.502745 404.968539) rotate(-25) scale(0.1 -0.1)">
       <defs>
        <path id="DejaVuSans-36" d="M 2113 2584 
Q 1688 2584 1439 2293 
Q 1191 2003 1191 1497 
Q 1191 994 1439 701 
Q 1688 409 2113 409 
Q 2538 409 2786 701 
Q 3034 994 3034 1497 
Q 3034 2003 2786 2293 
Q 2538 2584 2113 2584 
z
M 3366 4563 
L 3366 3988 
Q 3128 4100 2886 4159 
Q 2644 4219 2406 4219 
Q 1781 4219 1451 3797 
Q 1122 3375 1075 2522 
Q 1259 2794 1537 2939 
Q 1816 3084 2150 3084 
Q 2853 3084 3261 2657 
Q 3669 2231 3669 1497 
Q 3669 778 3244 343 
Q 2819 -91 2113 -91 
Q 1303 -91 875 529 
Q 447 1150 447 2328 
Q 447 3434 972 4092 
Q 1497 4750 2381 4750 
Q 2619 4750 2861 4703 
Q 3103 4656 3366 4563 
z
" transform="scale(0.015625)"/>
       </defs>
       <use xlink:href="#DejaVuSans-30"/>
       <use xlink:href="#DejaVuSans-38" transform="translate(63.623047 0)"/>
       <use xlink:href="#DejaVuSans-2d" transform="translate(127.246094 0)"/>
       <use xlink:href="#DejaVuSans-32" transform="translate(163.330078 0)"/>
       <use xlink:href="#DejaVuSans-33" transform="translate(226.953125 0)"/>
       <use xlink:href="#DejaVuSans-20" transform="translate(290.576172 0)"/>
       <use xlink:href="#DejaVuSans-31" transform="translate(322.363281 0)"/>
       <use xlink:href="#DejaVuSans-36" transform="translate(385.986328 0)"/>
      </g>
     </g>
    </g>
    <g id="xtick_8">
     <g id="line2d_15">
      <path d="M 471.837181 372.080703 
L 471.837181 26.88 
" clip-path="url(#p23ddfbc4f4)" style="fill: none; stroke-dasharray: 1.85,0.8; stroke-dashoffset: 0; stroke: #b0b0b0; stroke-width: 0.5"/>
     </g>
     <g id="line2d_16">
      <g>
       <use xlink:href="#m44cd169b17" x="471.837181" y="372.080703" style="stroke: #000000; stroke-width: 0.8"/>
      </g>
     </g>
     <g id="text_8">
      <!-- 08-23 17 -->
      <g transform="translate(430.209819 404.968539) rotate(-25) scale(0.1 -0.1)">
       <defs>
        <path id="DejaVuSans-37" d="M 525 4666 
L 3525 4666 
L 3525 4397 
L 1831 0 
L 1172 0 
L 2766 4134 
L 525 4134 
L 525 4666 
z
" transform="scale(0.015625)"/>
       </defs>
       <use xlink:href="#DejaVuSans-30"/>
       <use xlink:href="#DejaVuSans-38" transform="translate(63.623047 0)"/>
       <use xlink:href="#DejaVuSans-2d" transform="translate(127.246094 0)"/>
       <use xlink:href="#DejaVuSans-32" transform="translate(163.330078 0)"/>
       <use xlink:href="#DejaVuSans-33" transform="translate(226.953125 0)"/>
       <use xlink:href="#DejaVuSans-20" transform="translate(290.576172 0)"/>
       <use xlink:href="#DejaVuSans-31" transform="translate(322.363281 0)"/>
       <use xlink:href="#DejaVuSans-37" transform="translate(385.986328 0)"/>
      </g>
     </g>
    </g>
    <g id="xtick_9">
     <g id="line2d_17">
      <path d="M 529.544254 372.080703 
L 529.544254 26.88 
" clip-path="url(#p23ddfbc4f4)" style="fill: none; stroke-dasharray: 1.85,0.8; stroke-dashoffset: 0; stroke: #b0b0b0; stroke-width: 0.5"/>
     </g>
     <g id="line2d_18">
      <g>
       <use xlink:href="#m44cd169b17" x="529.544254" y="372.080703" style="stroke: #000000; stroke-width: 0.8"/>
      </g>
     </g>
     <g id="text_9">
      <!-- 08-23 18 -->
      <g transform="translate(487.916893 404.968539) rotate(-25) scale(0.1 -0.1)">
       <use xlink:href="#DejaVuSans-30"/>
       <use xlink:href="#DejaVuSans-38" transform="translate(63.623047 0)"/>
       <use xlink:href="#DejaVuSans-2d" transform="translate(127.246094 0)"/>
       <use xlink:href="#DejaVuSans-32" transform="translate(163.330078 0)"/>
       <use xlink:href="#DejaVuSans-33" transform="translate(226.953125 0)"/>
       <use xlink:href="#DejaVuSans-20" transform="translate(290.576172 0)"/>
       <use xlink:href="#DejaVuSans-31" transform="translate(322.363281 0)"/>
       <use xlink:href="#DejaVuSans-38" transform="translate(385.986328 0)"/>
      </g>
     </g>
    </g>
    <g id="xtick_10">
     <g id="line2d_19">
      <path d="M 587.251328 372.080703 
L 587.251328 26.88 
" clip-path="url(#p23ddfbc4f4)" style="fill: none; stroke-dasharray: 1.85,0.8; stroke-dashoffset: 0; stroke: #b0b0b0; stroke-width: 0.5"/>
     </g>
     <g id="line2d_20">
      <g>
       <use xlink:href="#m44cd169b17" x="587.251328" y="372.080703" style="stroke: #000000; stroke-width: 0.8"/>
      </g>
     </g>
     <g id="text_10">
      <!-- 08-23 19 -->
      <g transform="translate(545.623966 404.968539) rotate(-25) scale(0.1 -0.1)">
       <defs>
        <path id="DejaVuSans-39" d="M 703 97 
L 703 672 
Q 941 559 1184 500 
Q 1428 441 1663 441 
Q 2288 441 2617 861 
Q 2947 1281 2994 2138 
Q 2813 1869 2534 1725 
Q 2256 1581 1919 1581 
Q 1219 1581 811 2004 
Q 403 2428 403 3163 
Q 403 3881 828 4315 
Q 1253 4750 1959 4750 
Q 2769 4750 3195 4129 
Q 3622 3509 3622 2328 
Q 3622 1225 3098 567 
Q 2575 -91 1691 -91 
Q 1453 -91 1209 -44 
Q 966 3 703 97 
z
M 1959 2075 
Q 2384 2075 2632 2365 
Q 2881 2656 2881 3163 
Q 2881 3666 2632 3958 
Q 2384 4250 1959 4250 
Q 1534 4250 1286 3958 
Q 1038 3666 1038 3163 
Q 1038 2656 1286 2365 
Q 1534 2075 1959 2075 
z
" transform="scale(0.015625)"/>
       </defs>
       <use xlink:href="#DejaVuSans-30"/>
       <use xlink:href="#DejaVuSans-38" transform="translate(63.623047 0)"/>
       <use xlink:href="#DejaVuSans-2d" transform="translate(127.246094 0)"/>
       <use xlink:href="#DejaVuSans-32" transform="translate(163.330078 0)"/>
       <use xlink:href="#DejaVuSans-33" transform="translate(226.953125 0)"/>
       <use xlink:href="#DejaVuSans-20" transform="translate(290.576172 0)"/>
       <use xlink:href="#DejaVuSans-31" transform="translate(322.363281 0)"/>
       <use xlink:href="#DejaVuSans-39" transform="translate(385.986328 0)"/>
      </g>
     </g>
    </g>
    <g id="xtick_11">
     <g id="line2d_21">
      <path d="M 644.958402 372.080703 
L 644.958402 26.88 
" clip-path="url(#p23ddfbc4f4)" style="fill: none; stroke-dasharray: 1.85,0.8; stroke-dashoffset: 0; stroke: #b0b0b0; stroke-width: 0.5"/>
     </g>
     <g id="line2d_22">
      <g>
       <use xlink:href="#m44cd169b17" x="644.958402" y="372.080703" style="stroke: #000000; stroke-width: 0.8"/>
      </g>
     </g>
     <g id="text_11">
      <!-- 08-23 20 -->
      <g transform="translate(603.33104 404.968539) rotate(-25) scale(0.1 -0.1)">
       <use xlink:href="#DejaVuSans-30"/>
       <use xlink:href="#DejaVuSans-38" transform="translate(63.623047 0)"/>
       <use xlink:href="#DejaVuSans-2d" transform="translate(127.246094 0)"/>
       <use xlink:href="#DejaVuSans-32" transform="translate(163.330078 0)"/>
       <use xlink:href="#DejaVuSans-33" transform="translate(226.953125 0)"/>
       <use xlink:href="#DejaVuSans-20" transform="translate(290.576172 0)"/>
       <use xlink:href="#DejaVuSans-32" transform="translate(322.363281 0)"/>
       <use xlink:href="#DejaVuSans-30" transform="translate(385.986328 0)"/>
      </g>
     </g>
    </g>
    <g id="xtick_12">
     <g id="line2d_23">
      <path d="M 702.665475 372.080703 
L 702.665475 26.88 
" clip-path="url(#p23ddfbc4f4)" style="fill: none; stroke-dasharray: 1.85,0.8; stroke-dashoffset: 0; stroke: #b0b0b0; stroke-width: 0.5"/>
     </g>
     <g id="line2d_24">
      <g>
       <use xlink:href="#m44cd169b17" x="702.665475" y="372.080703" style="stroke: #000000; stroke-width: 0.8"/>
      </g>
     </g>
     <g id="text_12">
      <!-- 08-23 21 -->
      <g transform="translate(661.038114 404.968539) rotate(-25) scale(0.1 -0.1)">
       <use xlink:href="#DejaVuSans-30"/>
       <use xlink:href="#DejaVuSans-38" transform="translate(63.623047 0)"/>
       <use xlink:href="#DejaVuSans-2d" transform="translate(127.246094 0)"/>
       <use xlink:href="#DejaVuSans-32" transform="translate(163.330078 0)"/>
       <use xlink:href="#DejaVuSans-33" transform="translate(226.953125 0)"/>
       <use xlink:href="#DejaVuSans-20" transform="translate(290.576172 0)"/>
       <use xlink:href="#DejaVuSans-32" transform="translate(322.363281 0)"/>
       <use xlink:href="#DejaVuSans-31" transform="translate(385.986328 0)"/>
      </g>
     </g>
    </g>
    <g id="text_13">
     <!-- Date -->
     <g transform="translate(364.934219 418.451813) scale(0.1 -0.1)">
      <defs>
       <path id="DejaVuSans-44" d="M 1259 4147 
L 1259 519 
L 2022 519 
Q 2988 519 3436 956 
Q 3884 1394 3884 2338 
Q 3884 3275 3436 3711 
Q 2988 4147 2022 4147 
L 1259 4147 
z
M 628 4666 
L 1925 4666 
Q 3281 4666 3915 4102 
Q 4550 3538 4550 2338 
Q 4550 1131 3912 565 
Q 3275 0 1925 0 
L 628 0 
L 628 4666 
z
" transform="scale(0.015625)"/>
       <path id="DejaVuSans-61" d="M 2194 1759 
Q 1497 1759 1228 1600 
Q 959 1441 959 1056 
Q 959 750 1161 570 
Q 1363 391 1709 391 
Q 2188 391 2477 730 
Q 2766 1069 2766 1631 
L 2766 1759 
L 2194 1759 
z
M 3341 1997 
L 3341 0 
L 2766 0 
L 2766 531 
Q 2569 213 2275 61 
Q 1981 -91 1556 -91 
Q 1019 -91 701 211 
Q 384 513 384 1019 
Q 384 1609 779 1909 
Q 1175 2209 1959 2209 
L 2766 2209 
L 2766 2266 
Q 2766 2663 2505 2880 
Q 2244 3097 1772 3097 
Q 1472 3097 1187 3025 
Q 903 2953 641 2809 
L 641 3341 
Q 956 3463 1253 3523 
Q 1550 3584 1831 3584 
Q 2591 3584 2966 3190 
Q 3341 2797 3341 1997 
z
" transform="scale(0.015625)"/>
       <path id="DejaVuSans-74" d="M 1172 4494 
L 1172 3500 
L 2356 3500 
L 2356 3053 
L 1172 3053 
L 1172 1153 
Q 1172 725 1289 603 
Q 1406 481 1766 481 
L 2356 481 
L 2356 0 
L 1766 0 
Q 1100 0 847 248 
Q 594 497 594 1153 
L 594 3053 
L 172 3053 
L 172 3500 
L 594 3500 
L 594 4494 
L 1172 4494 
z
" transform="scale(0.015625)"/>
       <path id="DejaVuSans-65" d="M 3597 1894 
L 3597 1613 
L 953 1613 
Q 991 1019 1311 708 
Q 1631 397 2203 397 
Q 2534 397 2845 478 
Q 3156 559 3463 722 
L 3463 178 
Q 3153 47 2828 -22 
Q 2503 -91 2169 -91 
Q 1331 -91 842 396 
Q 353 884 353 1716 
Q 353 2575 817 3079 
Q 1281 3584 2069 3584 
Q 2775 3584 3186 3129 
Q 3597 2675 3597 1894 
z
M 3022 2063 
Q 3016 2534 2758 2815 
Q 2500 3097 2075 3097 
Q 1594 3097 1305 2825 
Q 1016 2553 972 2059 
L 3022 2063 
z
" transform="scale(0.015625)"/>
      </defs>
      <use xlink:href="#DejaVuSans-44"/>
      <use xlink:href="#DejaVuSans-61" transform="translate(77.001953 0)"/>
      <use xlink:href="#DejaVuSans-74" transform="translate(138.28125 0)"/>
      <use xlink:href="#DejaVuSans-65" transform="translate(177.490234 0)"/>
     </g>
    </g>
   </g>
   <g id="matplotlib.axis_2">
    <g id="ytick_1">
     <g id="line2d_25">
      <path d="M 44.57 338.129668 
L 709.2 338.129668 
" clip-path="url(#p23ddfbc4f4)" style="fill: none; stroke-dasharray: 1.85,0.8; stroke-dashoffset: 0; stroke: #b0b0b0; stroke-width: 0.5"/>
     </g>
     <g id="line2d_26">
      <defs>
       <path id="m6e3fe16da9" d="M 0 0 
L -3.5 0 
" style="stroke: #000000; stroke-width: 0.8"/>
      </defs>
      <g>
       <use xlink:href="#m6e3fe16da9" x="44.57" y="338.129668" style="stroke: #000000; stroke-width: 0.8"/>
      </g>
     </g>
     <g id="text_14">
      <!-- 70 -->
      <g transform="translate(24.845 341.928887) scale(0.1 -0.1)">
       <use xlink:href="#DejaVuSans-37"/>
       <use xlink:href="#DejaVuSans-30" transform="translate(63.623047 0)"/>
      </g>
     </g>
    </g>
    <g id="ytick_2">
     <g id="line2d_27">
      <path d="M 44.57 267.354111 
L 709.2 267.354111 
" clip-path="url(#p23ddfbc4f4)" style="fill: none; stroke-dasharray: 1.85,0.8; stroke-dashoffset: 0; stroke: #b0b0b0; stroke-width: 0.5"/>
     </g>
     <g id="line2d_28">
      <g>
       <use xlink:href="#m6e3fe16da9" x="44.57" y="267.354111" style="stroke: #000000; stroke-width: 0.8"/>
      </g>
     </g>
     <g id="text_15">
      <!-- 75 -->
      <g transform="translate(24.845 271.153329) scale(0.1 -0.1)">
       <use xlink:href="#DejaVuSans-37"/>
       <use xlink:href="#DejaVuSans-35" transform="translate(63.623047 0)"/>
      </g>
     </g>
    </g>
    <g id="ytick_3">
     <g id="line2d_29">
      <path d="M 44.57 196.578553 
L 709.2 196.578553 
" clip-path="url(#p23ddfbc4f4)" style="fill: none; stroke-dasharray: 1.85,0.8; stroke-dashoffset: 0; stroke: #b0b0b0; stroke-width: 0.5"/>
     </g>
     <g id="line2d_30">
      <g>
       <use xlink:href="#m6e3fe16da9" x="44.57" y="196.578553" style="stroke: #000000; stroke-width: 0.8"/>
      </g>
     </g>
     <g id="text_16">
      <!-- 80 -->
      <g transform="translate(24.845 200.377772) scale(0.1 -0.1)">
       <use xlink:href="#DejaVuSans-38"/>
       <use xlink:href="#DejaVuSans-30" transform="translate(63.623047 0)"/>
      </g>
     </g>
    </g>
    <g id="ytick_4">
     <g id="line2d_31">
      <path d="M 44.57 125.802996 
L 709.2 125.802996 
" clip-path="url(#p23ddfbc4f4)" style="fill: none; stroke-dasharray: 1.85,0.8; stroke-dashoffset: 0; stroke: #b0b0b0; stroke-width: 0.5"/>
     </g>
     <g id="line2d_32">
      <g>
       <use xlink:href="#m6e3fe16da9" x="44.57" y="125.802996" style="stroke: #000000; stroke-width: 0.8"/>
      </g>
     </g>
     <g id="text_17">
      <!-- 85 -->
      <g transform="translate(24.845 129.602215) scale(0.1 -0.1)">
       <use xlink:href="#DejaVuSans-38"/>
       <use xlink:href="#DejaVuSans-35" transform="translate(63.623047 0)"/>
      </g>
     </g>
    </g>
    <g id="ytick_5">
     <g id="line2d_33">
      <path d="M 44.57 55.027439 
L 709.2 55.027439 
" clip-path="url(#p23ddfbc4f4)" style="fill: none; stroke-dasharray: 1.85,0.8; stroke-dashoffset: 0; stroke: #b0b0b0; stroke-width: 0.5"/>
     </g>
     <g id="line2d_34">
      <g>
       <use xlink:href="#m6e3fe16da9" x="44.57" y="55.027439" style="stroke: #000000; stroke-width: 0.8"/>
      </g>
     </g>
     <g id="text_18">
      <!-- 90 -->
      <g transform="translate(24.845 58.826658) scale(0.1 -0.1)">
       <use xlink:href="#DejaVuSans-39"/>
       <use xlink:href="#DejaVuSans-30" transform="translate(63.623047 0)"/>
      </g>
     </g>
    </g>
    <g id="text_19">
     <!-- Pull Time (seconds) -->
     <g transform="translate(18.765312 248.105351) rotate(-90) scale(0.1 -0.1)">
      <defs>
       <path id="DejaVuSans-50" d="M 1259 4147 
L 1259 2394 
L 2053 2394 
Q 2494 2394 2734 2622 
Q 2975 2850 2975 3272 
Q 2975 3691 2734 3919 
Q 2494 4147 2053 4147 
L 1259 4147 
z
M 628 4666 
L 2053 4666 
Q 2838 4666 3239 4311 
Q 3641 3956 3641 3272 
Q 3641 2581 3239 2228 
Q 2838 1875 2053 1875 
L 1259 1875 
L 1259 0 
L 628 0 
L 628 4666 
z
" transform="scale(0.015625)"/>
       <path id="DejaVuSans-75" d="M 544 1381 
L 544 3500 
L 1119 3500 
L 1119 1403 
Q 1119 906 1312 657 
Q 1506 409 1894 409 
Q 2359 409 2629 706 
Q 2900 1003 2900 1516 
L 2900 3500 
L 3475 3500 
L 3475 0 
L 2900 0 
L 2900 538 
Q 2691 219 2414 64 
Q 2138 -91 1772 -91 
Q 1169 -91 856 284 
Q 544 659 544 1381 
z
M 1991 3584 
L 1991 3584 
z
" transform="scale(0.015625)"/>
       <path id="DejaVuSans-6c" d="M 603 4863 
L 1178 4863 
L 1178 0 
L 603 0 
L 603 4863 
z
" transform="scale(0.015625)"/>
       <path id="DejaVuSans-54" d="M -19 4666 
L 3928 4666 
L 3928 4134 
L 2272 4134 
L 2272 0 
L 1638 0 
L 1638 4134 
L -19 4134 
L -19 4666 
z
" transform="scale(0.015625)"/>
       <path id="DejaVuSans-69" d="M 603 3500 
L 1178 3500 
L 1178 0 
L 603 0 
L 603 3500 
z
M 603 4863 
L 1178 4863 
L 1178 4134 
L 603 4134 
L 603 4863 
z
" transform="scale(0.015625)"/>
       <path id="DejaVuSans-6d" d="M 3328 2828 
Q 3544 3216 3844 3400 
Q 4144 3584 4550 3584 
Q 5097 3584 5394 3201 
Q 5691 2819 5691 2113 
L 5691 0 
L 5113 0 
L 5113 2094 
Q 5113 2597 4934 2840 
Q 4756 3084 4391 3084 
Q 3944 3084 3684 2787 
Q 3425 2491 3425 1978 
L 3425 0 
L 2847 0 
L 2847 2094 
Q 2847 2600 2669 2842 
Q 2491 3084 2119 3084 
Q 1678 3084 1418 2786 
Q 1159 2488 1159 1978 
L 1159 0 
L 581 0 
L 581 3500 
L 1159 3500 
L 1159 2956 
Q 1356 3278 1631 3431 
Q 1906 3584 2284 3584 
Q 2666 3584 2933 3390 
Q 3200 3197 3328 2828 
z
" transform="scale(0.015625)"/>
       <path id="DejaVuSans-28" d="M 1984 4856 
Q 1566 4138 1362 3434 
Q 1159 2731 1159 2009 
Q 1159 1288 1364 580 
Q 1569 -128 1984 -844 
L 1484 -844 
Q 1016 -109 783 600 
Q 550 1309 550 2009 
Q 550 2706 781 3412 
Q 1013 4119 1484 4856 
L 1984 4856 
z
" transform="scale(0.015625)"/>
       <path id="DejaVuSans-73" d="M 2834 3397 
L 2834 2853 
Q 2591 2978 2328 3040 
Q 2066 3103 1784 3103 
Q 1356 3103 1142 2972 
Q 928 2841 928 2578 
Q 928 2378 1081 2264 
Q 1234 2150 1697 2047 
L 1894 2003 
Q 2506 1872 2764 1633 
Q 3022 1394 3022 966 
Q 3022 478 2636 193 
Q 2250 -91 1575 -91 
Q 1294 -91 989 -36 
Q 684 19 347 128 
L 347 722 
Q 666 556 975 473 
Q 1284 391 1588 391 
Q 1994 391 2212 530 
Q 2431 669 2431 922 
Q 2431 1156 2273 1281 
Q 2116 1406 1581 1522 
L 1381 1569 
Q 847 1681 609 1914 
Q 372 2147 372 2553 
Q 372 3047 722 3315 
Q 1072 3584 1716 3584 
Q 2034 3584 2315 3537 
Q 2597 3491 2834 3397 
z
" transform="scale(0.015625)"/>
       <path id="DejaVuSans-63" d="M 3122 3366 
L 3122 2828 
Q 2878 2963 2633 3030 
Q 2388 3097 2138 3097 
Q 1578 3097 1268 2742 
Q 959 2388 959 1747 
Q 959 1106 1268 751 
Q 1578 397 2138 397 
Q 2388 397 2633 464 
Q 2878 531 3122 666 
L 3122 134 
Q 2881 22 2623 -34 
Q 2366 -91 2075 -91 
Q 1284 -91 818 406 
Q 353 903 353 1747 
Q 353 2603 823 3093 
Q 1294 3584 2113 3584 
Q 2378 3584 2631 3529 
Q 2884 3475 3122 3366 
z
" transform="scale(0.015625)"/>
       <path id="DejaVuSans-6f" d="M 1959 3097 
Q 1497 3097 1228 2736 
Q 959 2375 959 1747 
Q 959 1119 1226 758 
Q 1494 397 1959 397 
Q 2419 397 2687 759 
Q 2956 1122 2956 1747 
Q 2956 2369 2687 2733 
Q 2419 3097 1959 3097 
z
M 1959 3584 
Q 2709 3584 3137 3096 
Q 3566 2609 3566 1747 
Q 3566 888 3137 398 
Q 2709 -91 1959 -91 
Q 1206 -91 779 398 
Q 353 888 353 1747 
Q 353 2609 779 3096 
Q 1206 3584 1959 3584 
z
" transform="scale(0.015625)"/>
       <path id="DejaVuSans-6e" d="M 3513 2113 
L 3513 0 
L 2938 0 
L 2938 2094 
Q 2938 2591 2744 2837 
Q 2550 3084 2163 3084 
Q 1697 3084 1428 2787 
Q 1159 2491 1159 1978 
L 1159 0 
L 581 0 
L 581 3500 
L 1159 3500 
L 1159 2956 
Q 1366 3272 1645 3428 
Q 1925 3584 2291 3584 
Q 2894 3584 3203 3211 
Q 3513 2838 3513 2113 
z
" transform="scale(0.015625)"/>
       <path id="DejaVuSans-64" d="M 2906 2969 
L 2906 4863 
L 3481 4863 
L 3481 0 
L 2906 0 
L 2906 525 
Q 2725 213 2448 61 
Q 2172 -91 1784 -91 
Q 1150 -91 751 415 
Q 353 922 353 1747 
Q 353 2572 751 3078 
Q 1150 3584 1784 3584 
Q 2172 3584 2448 3432 
Q 2725 3281 2906 2969 
z
M 947 1747 
Q 947 1113 1208 752 
Q 1469 391 1925 391 
Q 2381 391 2643 752 
Q 2906 1113 2906 1747 
Q 2906 2381 2643 2742 
Q 2381 3103 1925 3103 
Q 1469 3103 1208 2742 
Q 947 2381 947 1747 
z
" transform="scale(0.015625)"/>
       <path id="DejaVuSans-29" d="M 513 4856 
L 1013 4856 
Q 1481 4119 1714 3412 
Q 1947 2706 1947 2009 
Q 1947 1309 1714 600 
Q 1481 -109 1013 -844 
L 513 -844 
Q 928 -128 1133 580 
Q 1338 1288 1338 2009 
Q 1338 2731 1133 3434 
Q 928 4138 513 4856 
z
" transform="scale(0.015625)"/>
      </defs>
      <use xlink:href="#DejaVuSans-50"/>
      <use xlink:href="#DejaVuSans-75" transform="translate(58.552734 0)"/>
      <use xlink:href="#DejaVuSans-6c" transform="translate(121.931641 0)"/>
      <use xlink:href="#DejaVuSans-6c" transform="translate(149.714844 0)"/>
      <use xlink:href="#DejaVuSans-20" transform="translate(177.498047 0)"/>
      <use xlink:href="#DejaVuSans-54" transform="translate(209.285156 0)"/>
      <use xlink:href="#DejaVuSans-69" transform="translate(267.244141 0)"/>
      <use xlink:href="#DejaVuSans-6d" transform="translate(295.027344 0)"/>
      <use xlink:href="#DejaVuSans-65" transform="translate(392.439453 0)"/>
      <use xlink:href="#DejaVuSans-20" transform="translate(453.962891 0)"/>
      <use xlink:href="#DejaVuSans-28" transform="translate(485.75 0)"/>
      <use xlink:href="#DejaVuSans-73" transform="translate(524.763672 0)"/>
      <use xlink:href="#DejaVuSans-65" transform="translate(576.863281 0)"/>
      <use xlink:href="#DejaVuSans-63" transform="translate(638.386719 0)"/>
      <use xlink:href="#DejaVuSans-6f" transform="translate(693.367188 0)"/>
      <use xlink:href="#DejaVuSans-6e" transform="translate(754.548828 0)"/>
      <use xlink:href="#DejaVuSans-64" transform="translate(817.927734 0)"/>
      <use xlink:href="#DejaVuSans-73" transform="translate(881.404297 0)"/>
      <use xlink:href="#DejaVuSans-29" transform="translate(933.503906 0)"/>
     </g>
    </g>
   </g>
   <g id="line2d_35">
    <path d="M 76.046804 323.549903 
M 80.214537 341.526895 
M 85.985245 291.842453 
M 93.711581 321.85129 
M 104.643865 329.919703 
M 113.04345 342.800855 
M 121.298768 341.668446 
M 130.547929 317.321654 
M 141.592422 320.435779 
M 151.210268 324.39921 
M 159.850299 330.344357 
M 167.817081 323.408352 
M 176.024309 319.869574 
M 184.183448 333.033828 
M 196.911064 321.285085 
M 213.325521 315.764592 
M 233.971829 306.70532 
M 247.869616 319.30337 
M 261.190332 338.41277 
M 274.174424 311.518058 
M 283.471675 339.403628 
M 291.566695 342.23465 
M 299.437298 324.823863 
M 310.081047 322.700596 
M 322.728514 299.344663 
M 332.763133 314.490632 
M 341.643611 323.833005 
M 349.834809 327.937988 
M 357.705413 314.915285 
M 368.349162 333.175379 
M 381.012659 338.41277 
M 389.925196 316.75545 
M 398.228602 339.120526 
M 406.435831 330.061254 
M 414.370553 329.49505 
M 425.607403 331.193663 
M 439.328863 295.805885 
M 450.854248 344.641019 
M 460.440034 346.622735 
M 468.486965 310.810303 
M 478.217018 334.307788 
M 489.566076 348.887553 
M 500.049528 335.015543 
M 509.074273 320.152676 
M 517.169293 331.759868 
M 525.264313 327.654885 
M 535.667616 337.13881 
M 548.603618 337.563463 
M 563.960112 335.440197 
M 575.116813 306.988423 
M 583.308011 356.389762 
M 592.589232 353.275637 
M 603.729904 338.129668 
M 612.498173 295.664334 
M 621.090115 339.120526 
M 628.84851 308.262383 
M 636.99162 307.696178 
M 644.798104 326.380925 
M 655.810538 321.143534 
M 669.243462 320.57733 
M 678.989545 347.755144 
" clip-path="url(#p23ddfbc4f4)" style="fill: none; stroke: #1f77b4; stroke-width: 1.5; stroke-linecap: square"/>
    <defs>
     <path id="m2282ff0d6a" d="M 0 3 
C 0.795609 3 1.55874 2.683901 2.12132 2.12132 
C 2.683901 1.55874 3 0.795609 3 0 
C 3 -0.795609 2.683901 -1.55874 2.12132 -2.12132 
C 1.55874 -2.683901 0.795609 -3 0 -3 
C -0.795609 -3 -1.55874 -2.683901 -2.12132 -2.12132 
C -2.683901 -1.55874 -3 -0.795609 -3 0 
C -3 0.795609 -2.683901 1.55874 -2.12132 2.12132 
C -1.55874 2.683901 -0.795609 3 0 3 
z
" style="stroke: #1f77b4"/>
    </defs>
    <g clip-path="url(#p23ddfbc4f4)">
     <use xlink:href="#m2282ff0d6a" x="76.046804" y="323.549903" style="fill: #1f77b4; stroke: #1f77b4"/>
     <use xlink:href="#m2282ff0d6a" x="80.214537" y="341.526895" style="fill: #1f77b4; stroke: #1f77b4"/>
     <use xlink:href="#m2282ff0d6a" x="85.985245" y="291.842453" style="fill: #1f77b4; stroke: #1f77b4"/>
     <use xlink:href="#m2282ff0d6a" x="93.711581" y="321.85129" style="fill: #1f77b4; stroke: #1f77b4"/>
     <use xlink:href="#m2282ff0d6a" x="104.643865" y="329.919703" style="fill: #1f77b4; stroke: #1f77b4"/>
     <use xlink:href="#m2282ff0d6a" x="113.04345" y="342.800855" style="fill: #1f77b4; stroke: #1f77b4"/>
     <use xlink:href="#m2282ff0d6a" x="121.298768" y="341.668446" style="fill: #1f77b4; stroke: #1f77b4"/>
     <use xlink:href="#m2282ff0d6a" x="130.547929" y="317.321654" style="fill: #1f77b4; stroke: #1f77b4"/>
     <use xlink:href="#m2282ff0d6a" x="141.592422" y="320.435779" style="fill: #1f77b4; stroke: #1f77b4"/>
     <use xlink:href="#m2282ff0d6a" x="151.210268" y="324.39921" style="fill: #1f77b4; stroke: #1f77b4"/>
     <use xlink:href="#m2282ff0d6a" x="159.850299" y="330.344357" style="fill: #1f77b4; stroke: #1f77b4"/>
     <use xlink:href="#m2282ff0d6a" x="167.817081" y="323.408352" style="fill: #1f77b4; stroke: #1f77b4"/>
     <use xlink:href="#m2282ff0d6a" x="176.024309" y="319.869574" style="fill: #1f77b4; stroke: #1f77b4"/>
     <use xlink:href="#m2282ff0d6a" x="184.183448" y="333.033828" style="fill: #1f77b4; stroke: #1f77b4"/>
     <use xlink:href="#m2282ff0d6a" x="196.911064" y="321.285085" style="fill: #1f77b4; stroke: #1f77b4"/>
     <use xlink:href="#m2282ff0d6a" x="213.325521" y="315.764592" style="fill: #1f77b4; stroke: #1f77b4"/>
     <use xlink:href="#m2282ff0d6a" x="233.971829" y="306.70532" style="fill: #1f77b4; stroke: #1f77b4"/>
     <use xlink:href="#m2282ff0d6a" x="247.869616" y="319.30337" style="fill: #1f77b4; stroke: #1f77b4"/>
     <use xlink:href="#m2282ff0d6a" x="261.190332" y="338.41277" style="fill: #1f77b4; stroke: #1f77b4"/>
     <use xlink:href="#m2282ff0d6a" x="274.174424" y="311.518058" style="fill: #1f77b4; stroke: #1f77b4"/>
     <use xlink:href="#m2282ff0d6a" x="283.471675" y="339.403628" style="fill: #1f77b4; stroke: #1f77b4"/>
     <use xlink:href="#m2282ff0d6a" x="291.566695" y="342.23465" style="fill: #1f77b4; stroke: #1f77b4"/>
     <use xlink:href="#m2282ff0d6a" x="299.437298" y="324.823863" style="fill: #1f77b4; stroke: #1f77b4"/>
     <use xlink:href="#m2282ff0d6a" x="310.081047" y="322.700596" style="fill: #1f77b4; stroke: #1f77b4"/>
     <use xlink:href="#m2282ff0d6a" x="322.728514" y="299.344663" style="fill: #1f77b4; stroke: #1f77b4"/>
     <use xlink:href="#m2282ff0d6a" x="332.763133" y="314.490632" style="fill: #1f77b4; stroke: #1f77b4"/>
     <use xlink:href="#m2282ff0d6a" x="341.643611" y="323.833005" style="fill: #1f77b4; stroke: #1f77b4"/>
     <use xlink:href="#m2282ff0d6a" x="349.834809" y="327.937988" style="fill: #1f77b4; stroke: #1f77b4"/>
     <use xlink:href="#m2282ff0d6a" x="357.705413" y="314.915285" style="fill: #1f77b4; stroke: #1f77b4"/>
     <use xlink:href="#m2282ff0d6a" x="368.349162" y="333.175379" style="fill: #1f77b4; stroke: #1f77b4"/>
     <use xlink:href="#m2282ff0d6a" x="381.012659" y="338.41277" style="fill: #1f77b4; stroke: #1f77b4"/>
     <use xlink:href="#m2282ff0d6a" x="389.925196" y="316.75545" style="fill: #1f77b4; stroke: #1f77b4"/>
     <use xlink:href="#m2282ff0d6a" x="398.228602" y="339.120526" style="fill: #1f77b4; stroke: #1f77b4"/>
     <use xlink:href="#m2282ff0d6a" x="406.435831" y="330.061254" style="fill: #1f77b4; stroke: #1f77b4"/>
     <use xlink:href="#m2282ff0d6a" x="414.370553" y="329.49505" style="fill: #1f77b4; stroke: #1f77b4"/>
     <use xlink:href="#m2282ff0d6a" x="425.607403" y="331.193663" style="fill: #1f77b4; stroke: #1f77b4"/>
     <use xlink:href="#m2282ff0d6a" x="439.328863" y="295.805885" style="fill: #1f77b4; stroke: #1f77b4"/>
     <use xlink:href="#m2282ff0d6a" x="450.854248" y="344.641019" style="fill: #1f77b4; stroke: #1f77b4"/>
     <use xlink:href="#m2282ff0d6a" x="460.440034" y="346.622735" style="fill: #1f77b4; stroke: #1f77b4"/>
     <use xlink:href="#m2282ff0d6a" x="468.486965" y="310.810303" style="fill: #1f77b4; stroke: #1f77b4"/>
     <use xlink:href="#m2282ff0d6a" x="478.217018" y="334.307788" style="fill: #1f77b4; stroke: #1f77b4"/>
     <use xlink:href="#m2282ff0d6a" x="489.566076" y="348.887553" style="fill: #1f77b4; stroke: #1f77b4"/>
     <use xlink:href="#m2282ff0d6a" x="500.049528" y="335.015543" style="fill: #1f77b4; stroke: #1f77b4"/>
     <use xlink:href="#m2282ff0d6a" x="509.074273" y="320.152676" style="fill: #1f77b4; stroke: #1f77b4"/>
     <use xlink:href="#m2282ff0d6a" x="517.169293" y="331.759868" style="fill: #1f77b4; stroke: #1f77b4"/>
     <use xlink:href="#m2282ff0d6a" x="525.264313" y="327.654885" style="fill: #1f77b4; stroke: #1f77b4"/>
     <use xlink:href="#m2282ff0d6a" x="535.667616" y="337.13881" style="fill: #1f77b4; stroke: #1f77b4"/>
     <use xlink:href="#m2282ff0d6a" x="548.603618" y="337.563463" style="fill: #1f77b4; stroke: #1f77b4"/>
     <use xlink:href="#m2282ff0d6a" x="563.960112" y="335.440197" style="fill: #1f77b4; stroke: #1f77b4"/>
     <use xlink:href="#m2282ff0d6a" x="575.116813" y="306.988423" style="fill: #1f77b4; stroke: #1f77b4"/>
     <use xlink:href="#m2282ff0d6a" x="583.308011" y="356.389762" style="fill: #1f77b4; stroke: #1f77b4"/>
     <use xlink:href="#m2282ff0d6a" x="592.589232" y="353.275637" style="fill: #1f77b4; stroke: #1f77b4"/>
     <use xlink:href="#m2282ff0d6a" x="603.729904" y="338.129668" style="fill: #1f77b4; stroke: #1f77b4"/>
     <use xlink:href="#m2282ff0d6a" x="612.498173" y="295.664334" style="fill: #1f77b4; stroke: #1f77b4"/>
     <use xlink:href="#m2282ff0d6a" x="621.090115" y="339.120526" style="fill: #1f77b4; stroke: #1f77b4"/>
     <use xlink:href="#m2282ff0d6a" x="628.84851" y="308.262383" style="fill: #1f77b4; stroke: #1f77b4"/>
     <use xlink:href="#m2282ff0d6a" x="636.99162" y="307.696178" style="fill: #1f77b4; stroke: #1f77b4"/>
     <use xlink:href="#m2282ff0d6a" x="644.798104" y="326.380925" style="fill: #1f77b4; stroke: #1f77b4"/>
     <use xlink:href="#m2282ff0d6a" x="655.810538" y="321.143534" style="fill: #1f77b4; stroke: #1f77b4"/>
     <use xlink:href="#m2282ff0d6a" x="669.243462" y="320.57733" style="fill: #1f77b4; stroke: #1f77b4"/>
     <use xlink:href="#m2282ff0d6a" x="678.989545" y="347.755144" style="fill: #1f77b4; stroke: #1f77b4"/>
    </g>
   </g>
   <g id="line2d_36">
    <path d="M 74.780455 295.947436 
M 78.980247 316.613898 
M 84.686836 270.326684 
M 92.461261 302.600338 
M 103.393545 312.650467 
M 111.80916 316.897001 
M 120.080507 324.39921 
M 129.28158 281.650773 
M 140.342102 302.88344 
M 149.959948 310.102547 
M 158.583949 295.381231 
M 166.582791 312.650467 
M 174.75796 293.824169 
M 182.917099 298.920009 
M 195.676774 312.93357 
M 212.075201 304.015849 
M 232.67342 267.071008 
M 246.34679 64.08671 
M 259.940012 296.796742 
M 272.908074 284.764898 
M 282.205325 299.627765 
M 290.332404 312.650467 
M 298.186978 299.769316 
M 308.846757 309.536343 
M 321.446135 286.038858 
M 331.512813 309.960996 
M 340.361231 279.527507 
M 348.56846 296.088987 
M 356.374944 235.080457 
M 367.098842 292.125556 
M 379.778369 316.330796 
M 388.658846 294.390374 
M 396.962253 297.929151 
M 405.185511 306.563769 
M 413.120233 310.951854 
M 424.068548 42.570941 
M 437.982364 227.295145 
M 449.619957 322.417494 
M 459.189714 299.769316 
M 467.204585 278.536649 
M 476.966698 310.244098 
M 488.315756 296.655191 
M 498.799208 303.732747 
M 507.791894 281.367671 
M 515.935003 310.102547 
M 524.013993 305.289809 
M 534.401266 293.116413 
M 547.353299 299.910867 
M 562.709792 304.1574 
M 573.850463 289.294533 
M 581.929454 197.852514 
M 591.370972 320.718881 
M 602.463554 293.824169 
M 611.247853 296.230538 
M 619.807735 272.449951 
M 627.582161 295.522782 
M 635.70924 285.614204 
M 643.563814 320.294227 
M 654.496099 241.025603 
M 667.993142 305.289809 
M 677.755255 321.426636 
" clip-path="url(#p23ddfbc4f4)" style="fill: none; stroke: #ff7f0e; stroke-width: 1.5; stroke-linecap: square"/>
    <defs>
     <path id="mb94b17d459" d="M 0 3 
C 0.795609 3 1.55874 2.683901 2.12132 2.12132 
C 2.683901 1.55874 3 0.795609 3 0 
C 3 -0.795609 2.683901 -1.55874 2.12132 -2.12132 
C 1.55874 -2.683901 0.795609 -3 0 -3 
C -0.795609 -3 -1.55874 -2.683901 -2.12132 -2.12132 
C -2.683901 -1.55874 -3 -0.795609 -3 0 
C -3 0.795609 -2.683901 1.55874 -2.12132 2.12132 
C -1.55874 2.683901 -0.795609 3 0 3 
z
" style="stroke: #ff7f0e"/>
    </defs>
    <g clip-path="url(#p23ddfbc4f4)">
     <use xlink:href="#mb94b17d459" x="74.780455" y="295.947436" style="fill: #ff7f0e; stroke: #ff7f0e"/>
     <use xlink:href="#mb94b17d459" x="78.980247" y="316.613898" style="fill: #ff7f0e; stroke: #ff7f0e"/>
     <use xlink:href="#mb94b17d459" x="84.686836" y="270.326684" style="fill: #ff7f0e; stroke: #ff7f0e"/>
     <use xlink:href="#mb94b17d459" x="92.461261" y="302.600338" style="fill: #ff7f0e; stroke: #ff7f0e"/>
     <use xlink:href="#mb94b17d459" x="103.393545" y="312.650467" style="fill: #ff7f0e; stroke: #ff7f0e"/>
     <use xlink:href="#mb94b17d459" x="111.80916" y="316.897001" style="fill: #ff7f0e; stroke: #ff7f0e"/>
     <use xlink:href="#mb94b17d459" x="120.080507" y="324.39921" style="fill: #ff7f0e; stroke: #ff7f0e"/>
     <use xlink:href="#mb94b17d459" x="129.28158" y="281.650773" style="fill: #ff7f0e; stroke: #ff7f0e"/>
     <use xlink:href="#mb94b17d459" x="140.342102" y="302.88344" style="fill: #ff7f0e; stroke: #ff7f0e"/>
     <use xlink:href="#mb94b17d459" x="149.959948" y="310.102547" style="fill: #ff7f0e; stroke: #ff7f0e"/>
     <use xlink:href="#mb94b17d459" x="158.583949" y="295.381231" style="fill: #ff7f0e; stroke: #ff7f0e"/>
     <use xlink:href="#mb94b17d459" x="166.582791" y="312.650467" style="fill: #ff7f0e; stroke: #ff7f0e"/>
     <use xlink:href="#mb94b17d459" x="174.75796" y="293.824169" style="fill: #ff7f0e; stroke: #ff7f0e"/>
     <use xlink:href="#mb94b17d459" x="182.917099" y="298.920009" style="fill: #ff7f0e; stroke: #ff7f0e"/>
     <use xlink:href="#mb94b17d459" x="195.676774" y="312.93357" style="fill: #ff7f0e; stroke: #ff7f0e"/>
     <use xlink:href="#mb94b17d459" x="212.075201" y="304.015849" style="fill: #ff7f0e; stroke: #ff7f0e"/>
     <use xlink:href="#mb94b17d459" x="232.67342" y="267.071008" style="fill: #ff7f0e; stroke: #ff7f0e"/>
     <use xlink:href="#mb94b17d459" x="246.34679" y="64.08671" style="fill: #ff7f0e; stroke: #ff7f0e"/>
     <use xlink:href="#mb94b17d459" x="259.940012" y="296.796742" style="fill: #ff7f0e; stroke: #ff7f0e"/>
     <use xlink:href="#mb94b17d459" x="272.908074" y="284.764898" style="fill: #ff7f0e; stroke: #ff7f0e"/>
     <use xlink:href="#mb94b17d459" x="282.205325" y="299.627765" style="fill: #ff7f0e; stroke: #ff7f0e"/>
     <use xlink:href="#mb94b17d459" x="290.332404" y="312.650467" style="fill: #ff7f0e; stroke: #ff7f0e"/>
     <use xlink:href="#mb94b17d459" x="298.186978" y="299.769316" style="fill: #ff7f0e; stroke: #ff7f0e"/>
     <use xlink:href="#mb94b17d459" x="308.846757" y="309.536343" style="fill: #ff7f0e; stroke: #ff7f0e"/>
     <use xlink:href="#mb94b17d459" x="321.446135" y="286.038858" style="fill: #ff7f0e; stroke: #ff7f0e"/>
     <use xlink:href="#mb94b17d459" x="331.512813" y="309.960996" style="fill: #ff7f0e; stroke: #ff7f0e"/>
     <use xlink:href="#mb94b17d459" x="340.361231" y="279.527507" style="fill: #ff7f0e; stroke: #ff7f0e"/>
     <use xlink:href="#mb94b17d459" x="348.56846" y="296.088987" style="fill: #ff7f0e; stroke: #ff7f0e"/>
     <use xlink:href="#mb94b17d459" x="356.374944" y="235.080457" style="fill: #ff7f0e; stroke: #ff7f0e"/>
     <use xlink:href="#mb94b17d459" x="367.098842" y="292.125556" style="fill: #ff7f0e; stroke: #ff7f0e"/>
     <use xlink:href="#mb94b17d459" x="379.778369" y="316.330796" style="fill: #ff7f0e; stroke: #ff7f0e"/>
     <use xlink:href="#mb94b17d459" x="388.658846" y="294.390374" style="fill: #ff7f0e; stroke: #ff7f0e"/>
     <use xlink:href="#mb94b17d459" x="396.962253" y="297.929151" style="fill: #ff7f0e; stroke: #ff7f0e"/>
     <use xlink:href="#mb94b17d459" x="405.185511" y="306.563769" style="fill: #ff7f0e; stroke: #ff7f0e"/>
     <use xlink:href="#mb94b17d459" x="413.120233" y="310.951854" style="fill: #ff7f0e; stroke: #ff7f0e"/>
     <use xlink:href="#mb94b17d459" x="424.068548" y="42.570941" style="fill: #ff7f0e; stroke: #ff7f0e"/>
     <use xlink:href="#mb94b17d459" x="437.982364" y="227.295145" style="fill: #ff7f0e; stroke: #ff7f0e"/>
     <use xlink:href="#mb94b17d459" x="449.619957" y="322.417494" style="fill: #ff7f0e; stroke: #ff7f0e"/>
     <use xlink:href="#mb94b17d459" x="459.189714" y="299.769316" style="fill: #ff7f0e; stroke: #ff7f0e"/>
     <use xlink:href="#mb94b17d459" x="467.204585" y="278.536649" style="fill: #ff7f0e; stroke: #ff7f0e"/>
     <use xlink:href="#mb94b17d459" x="476.966698" y="310.244098" style="fill: #ff7f0e; stroke: #ff7f0e"/>
     <use xlink:href="#mb94b17d459" x="488.315756" y="296.655191" style="fill: #ff7f0e; stroke: #ff7f0e"/>
     <use xlink:href="#mb94b17d459" x="498.799208" y="303.732747" style="fill: #ff7f0e; stroke: #ff7f0e"/>
     <use xlink:href="#mb94b17d459" x="507.791894" y="281.367671" style="fill: #ff7f0e; stroke: #ff7f0e"/>
     <use xlink:href="#mb94b17d459" x="515.935003" y="310.102547" style="fill: #ff7f0e; stroke: #ff7f0e"/>
     <use xlink:href="#mb94b17d459" x="524.013993" y="305.289809" style="fill: #ff7f0e; stroke: #ff7f0e"/>
     <use xlink:href="#mb94b17d459" x="534.401266" y="293.116413" style="fill: #ff7f0e; stroke: #ff7f0e"/>
     <use xlink:href="#mb94b17d459" x="547.353299" y="299.910867" style="fill: #ff7f0e; stroke: #ff7f0e"/>
     <use xlink:href="#mb94b17d459" x="562.709792" y="304.1574" style="fill: #ff7f0e; stroke: #ff7f0e"/>
     <use xlink:href="#mb94b17d459" x="573.850463" y="289.294533" style="fill: #ff7f0e; stroke: #ff7f0e"/>
     <use xlink:href="#mb94b17d459" x="581.929454" y="197.852514" style="fill: #ff7f0e; stroke: #ff7f0e"/>
     <use xlink:href="#mb94b17d459" x="591.370972" y="320.718881" style="fill: #ff7f0e; stroke: #ff7f0e"/>
     <use xlink:href="#mb94b17d459" x="602.463554" y="293.824169" style="fill: #ff7f0e; stroke: #ff7f0e"/>
     <use xlink:href="#mb94b17d459" x="611.247853" y="296.230538" style="fill: #ff7f0e; stroke: #ff7f0e"/>
     <use xlink:href="#mb94b17d459" x="619.807735" y="272.449951" style="fill: #ff7f0e; stroke: #ff7f0e"/>
     <use xlink:href="#mb94b17d459" x="627.582161" y="295.522782" style="fill: #ff7f0e; stroke: #ff7f0e"/>
     <use xlink:href="#mb94b17d459" x="635.70924" y="285.614204" style="fill: #ff7f0e; stroke: #ff7f0e"/>
     <use xlink:href="#mb94b17d459" x="643.563814" y="320.294227" style="fill: #ff7f0e; stroke: #ff7f0e"/>
     <use xlink:href="#mb94b17d459" x="654.496099" y="241.025603" style="fill: #ff7f0e; stroke: #ff7f0e"/>
     <use xlink:href="#mb94b17d459" x="667.993142" y="305.289809" style="fill: #ff7f0e; stroke: #ff7f0e"/>
     <use xlink:href="#mb94b17d459" x="677.755255" y="321.426636" style="fill: #ff7f0e; stroke: #ff7f0e"/>
    </g>
   </g>
   <g id="patch_3">
    <path d="M 44.57 372.080703 
L 44.57 26.88 
" style="fill: none; stroke: #000000; stroke-width: 0.8; stroke-linejoin: miter; stroke-linecap: square"/>
   </g>
   <g id="patch_4">
    <path d="M 709.2 372.080703 
L 709.2 26.88 
" style="fill: none; stroke: #000000; stroke-width: 0.8; stroke-linejoin: miter; stroke-linecap: square"/>
   </g>
   <g id="patch_5">
    <path d="M 44.57 372.080703 
L 709.2 372.080703 
" style="fill: none; stroke: #000000; stroke-width: 0.8; stroke-linejoin: miter; stroke-linecap: square"/>
   </g>
   <g id="patch_6">
    <path d="M 44.57 26.88 
L 709.2 26.88 
" style="fill: none; stroke: #000000; stroke-width: 0.8; stroke-linejoin: miter; stroke-linecap: square"/>
   </g>
   <g id="text_20">
    <!-- Docker Pull Speed Comparison (Lower is Better) -->
    <g transform="translate(232.93375 20.88) scale(0.12 -0.12)">
     <defs>
      <path id="DejaVuSans-6b" d="M 581 4863 
L 1159 4863 
L 1159 1991 
L 2875 3500 
L 3609 3500 
L 1753 1863 
L 3688 0 
L 2938 0 
L 1159 1709 
L 1159 0 
L 581 0 
L 581 4863 
z
" transform="scale(0.015625)"/>
      <path id="DejaVuSans-72" d="M 2631 2963 
Q 2534 3019 2420 3045 
Q 2306 3072 2169 3072 
Q 1681 3072 1420 2755 
Q 1159 2438 1159 1844 
L 1159 0 
L 581 0 
L 581 3500 
L 1159 3500 
L 1159 2956 
Q 1341 3275 1631 3429 
Q 1922 3584 2338 3584 
Q 2397 3584 2469 3576 
Q 2541 3569 2628 3553 
L 2631 2963 
z
" transform="scale(0.015625)"/>
      <path id="DejaVuSans-53" d="M 3425 4513 
L 3425 3897 
Q 3066 4069 2747 4153 
Q 2428 4238 2131 4238 
Q 1616 4238 1336 4038 
Q 1056 3838 1056 3469 
Q 1056 3159 1242 3001 
Q 1428 2844 1947 2747 
L 2328 2669 
Q 3034 2534 3370 2195 
Q 3706 1856 3706 1288 
Q 3706 609 3251 259 
Q 2797 -91 1919 -91 
Q 1588 -91 1214 -16 
Q 841 59 441 206 
L 441 856 
Q 825 641 1194 531 
Q 1563 422 1919 422 
Q 2459 422 2753 634 
Q 3047 847 3047 1241 
Q 3047 1584 2836 1778 
Q 2625 1972 2144 2069 
L 1759 2144 
Q 1053 2284 737 2584 
Q 422 2884 422 3419 
Q 422 4038 858 4394 
Q 1294 4750 2059 4750 
Q 2388 4750 2728 4690 
Q 3069 4631 3425 4513 
z
" transform="scale(0.015625)"/>
      <path id="DejaVuSans-70" d="M 1159 525 
L 1159 -1331 
L 581 -1331 
L 581 3500 
L 1159 3500 
L 1159 2969 
Q 1341 3281 1617 3432 
Q 1894 3584 2278 3584 
Q 2916 3584 3314 3078 
Q 3713 2572 3713 1747 
Q 3713 922 3314 415 
Q 2916 -91 2278 -91 
Q 1894 -91 1617 61 
Q 1341 213 1159 525 
z
M 3116 1747 
Q 3116 2381 2855 2742 
Q 2594 3103 2138 3103 
Q 1681 3103 1420 2742 
Q 1159 2381 1159 1747 
Q 1159 1113 1420 752 
Q 1681 391 2138 391 
Q 2594 391 2855 752 
Q 3116 1113 3116 1747 
z
" transform="scale(0.015625)"/>
      <path id="DejaVuSans-43" d="M 4122 4306 
L 4122 3641 
Q 3803 3938 3442 4084 
Q 3081 4231 2675 4231 
Q 1875 4231 1450 3742 
Q 1025 3253 1025 2328 
Q 1025 1406 1450 917 
Q 1875 428 2675 428 
Q 3081 428 3442 575 
Q 3803 722 4122 1019 
L 4122 359 
Q 3791 134 3420 21 
Q 3050 -91 2638 -91 
Q 1578 -91 968 557 
Q 359 1206 359 2328 
Q 359 3453 968 4101 
Q 1578 4750 2638 4750 
Q 3056 4750 3426 4639 
Q 3797 4528 4122 4306 
z
" transform="scale(0.015625)"/>
      <path id="DejaVuSans-4c" d="M 628 4666 
L 1259 4666 
L 1259 531 
L 3531 531 
L 3531 0 
L 628 0 
L 628 4666 
z
" transform="scale(0.015625)"/>
      <path id="DejaVuSans-77" d="M 269 3500 
L 844 3500 
L 1563 769 
L 2278 3500 
L 2956 3500 
L 3675 769 
L 4391 3500 
L 4966 3500 
L 4050 0 
L 3372 0 
L 2619 2869 
L 1863 0 
L 1184 0 
L 269 3500 
z
" transform="scale(0.015625)"/>
      <path id="DejaVuSans-42" d="M 1259 2228 
L 1259 519 
L 2272 519 
Q 2781 519 3026 730 
Q 3272 941 3272 1375 
Q 3272 1813 3026 2020 
Q 2781 2228 2272 2228 
L 1259 2228 
z
M 1259 4147 
L 1259 2741 
L 2194 2741 
Q 2656 2741 2882 2914 
Q 3109 3088 3109 3444 
Q 3109 3797 2882 3972 
Q 2656 4147 2194 4147 
L 1259 4147 
z
M 628 4666 
L 2241 4666 
Q 2963 4666 3353 4366 
Q 3744 4066 3744 3513 
Q 3744 3084 3544 2831 
Q 3344 2578 2956 2516 
Q 3422 2416 3680 2098 
Q 3938 1781 3938 1306 
Q 3938 681 3513 340 
Q 3088 0 2303 0 
L 628 0 
L 628 4666 
z
" transform="scale(0.015625)"/>
     </defs>
     <use xlink:href="#DejaVuSans-44"/>
     <use xlink:href="#DejaVuSans-6f" transform="translate(77.001953 0)"/>
     <use xlink:href="#DejaVuSans-63" transform="translate(138.183594 0)"/>
     <use xlink:href="#DejaVuSans-6b" transform="translate(193.164062 0)"/>
     <use xlink:href="#DejaVuSans-65" transform="translate(247.449219 0)"/>
     <use xlink:href="#DejaVuSans-72" transform="translate(308.972656 0)"/>
     <use xlink:href="#DejaVuSans-20" transform="translate(350.085938 0)"/>
     <use xlink:href="#DejaVuSans-50" transform="translate(381.873047 0)"/>
     <use xlink:href="#DejaVuSans-75" transform="translate(440.425781 0)"/>
     <use xlink:href="#DejaVuSans-6c" transform="translate(503.804688 0)"/>
     <use xlink:href="#DejaVuSans-6c" transform="translate(531.587891 0)"/>
     <use xlink:href="#DejaVuSans-20" transform="translate(559.371094 0)"/>
     <use xlink:href="#DejaVuSans-53" transform="translate(591.158203 0)"/>
     <use xlink:href="#DejaVuSans-70" transform="translate(654.634766 0)"/>
     <use xlink:href="#DejaVuSans-65" transform="translate(718.111328 0)"/>
     <use xlink:href="#DejaVuSans-65" transform="translate(779.634766 0)"/>
     <use xlink:href="#DejaVuSans-64" transform="translate(841.158203 0)"/>
     <use xlink:href="#DejaVuSans-20" transform="translate(904.634766 0)"/>
     <use xlink:href="#DejaVuSans-43" transform="translate(936.421875 0)"/>
     <use xlink:href="#DejaVuSans-6f" transform="translate(1006.246094 0)"/>
     <use xlink:href="#DejaVuSans-6d" transform="translate(1067.427734 0)"/>
     <use xlink:href="#DejaVuSans-70" transform="translate(1164.839844 0)"/>
     <use xlink:href="#DejaVuSans-61" transform="translate(1228.316406 0)"/>
     <use xlink:href="#DejaVuSans-72" transform="translate(1289.595703 0)"/>
     <use xlink:href="#DejaVuSans-69" transform="translate(1330.708984 0)"/>
     <use xlink:href="#DejaVuSans-73" transform="translate(1358.492188 0)"/>
     <use xlink:href="#DejaVuSans-6f" transform="translate(1410.591797 0)"/>
     <use xlink:href="#DejaVuSans-6e" transform="translate(1471.773438 0)"/>
     <use xlink:href="#DejaVuSans-20" transform="translate(1535.152344 0)"/>
     <use xlink:href="#DejaVuSans-28" transform="translate(1566.939453 0)"/>
     <use xlink:href="#DejaVuSans-4c" transform="translate(1605.953125 0)"/>
     <use xlink:href="#DejaVuSans-6f" transform="translate(1659.916016 0)"/>
     <use xlink:href="#DejaVuSans-77" transform="translate(1721.097656 0)"/>
     <use xlink:href="#DejaVuSans-65" transform="translate(1802.884766 0)"/>
     <use xlink:href="#DejaVuSans-72" transform="translate(1864.408203 0)"/>
     <use xlink:href="#DejaVuSans-20" transform="translate(1905.521484 0)"/>
     <use xlink:href="#DejaVuSans-69" transform="translate(1937.308594 0)"/>
     <use xlink:href="#DejaVuSans-73" transform="translate(1965.091797 0)"/>
     <use xlink:href="#DejaVuSans-20" transform="translate(2017.191406 0)"/>
     <use xlink:href="#DejaVuSans-42" transform="translate(2048.978516 0)"/>
     <use xlink:href="#DejaVuSans-65" transform="translate(2117.582031 0)"/>
     <use xlink:href="#DejaVuSans-74" transform="translate(2179.105469 0)"/>
     <use xlink:href="#DejaVuSans-74" transform="translate(2218.314453 0)"/>
     <use xlink:href="#DejaVuSans-65" transform="translate(2257.523438 0)"/>
     <use xlink:href="#DejaVuSans-72" transform="translate(2319.046875 0)"/>
     <use xlink:href="#DejaVuSans-29" transform="translate(2360.160156 0)"/>
    </g>
   </g>
   <g id="legend_1">
    <g id="patch_7">
     <path d="M 634.817188 78.914375 
L 702.2 78.914375 
Q 704.2 78.914375 704.2 76.914375 
L 704.2 33.88 
Q 704.2 31.88 702.2 31.88 
L 634.817188 31.88 
Q 632.817188 31.88 632.817188 33.88 
L 632.817188 76.914375 
Q 632.817188 78.914375 634.817188 78.914375 
z
" style="fill: #ffffff; opacity: 0.8; stroke: #cccccc; stroke-linejoin: miter"/>
    </g>
    <g id="text_21">
     <!-- Registry -->
     <g transform="translate(648.039844 43.478437) scale(0.1 -0.1)">
      <defs>
       <path id="DejaVuSans-52" d="M 2841 2188 
Q 3044 2119 3236 1894 
Q 3428 1669 3622 1275 
L 4263 0 
L 3584 0 
L 2988 1197 
Q 2756 1666 2539 1819 
Q 2322 1972 1947 1972 
L 1259 1972 
L 1259 0 
L 628 0 
L 628 4666 
L 2053 4666 
Q 2853 4666 3247 4331 
Q 3641 3997 3641 3322 
Q 3641 2881 3436 2590 
Q 3231 2300 2841 2188 
z
M 1259 4147 
L 1259 2491 
L 2053 2491 
Q 2509 2491 2742 2702 
Q 2975 2913 2975 3322 
Q 2975 3731 2742 3939 
Q 2509 4147 2053 4147 
L 1259 4147 
z
" transform="scale(0.015625)"/>
       <path id="DejaVuSans-67" d="M 2906 1791 
Q 2906 2416 2648 2759 
Q 2391 3103 1925 3103 
Q 1463 3103 1205 2759 
Q 947 2416 947 1791 
Q 947 1169 1205 825 
Q 1463 481 1925 481 
Q 2391 481 2648 825 
Q 2906 1169 2906 1791 
z
M 3481 434 
Q 3481 -459 3084 -895 
Q 2688 -1331 1869 -1331 
Q 1566 -1331 1297 -1286 
Q 1028 -1241 775 -1147 
L 775 -588 
Q 1028 -725 1275 -790 
Q 1522 -856 1778 -856 
Q 2344 -856 2625 -561 
Q 2906 -266 2906 331 
L 2906 616 
Q 2728 306 2450 153 
Q 2172 0 1784 0 
Q 1141 0 747 490 
Q 353 981 353 1791 
Q 353 2603 747 3093 
Q 1141 3584 1784 3584 
Q 2172 3584 2450 3431 
Q 2728 3278 2906 2969 
L 2906 3500 
L 3481 3500 
L 3481 434 
z
" transform="scale(0.015625)"/>
       <path id="DejaVuSans-79" d="M 2059 -325 
Q 1816 -950 1584 -1140 
Q 1353 -1331 966 -1331 
L 506 -1331 
L 506 -850 
L 844 -850 
Q 1081 -850 1212 -737 
Q 1344 -625 1503 -206 
L 1606 56 
L 191 3500 
L 800 3500 
L 1894 763 
L 2988 3500 
L 3597 3500 
L 2059 -325 
z
" transform="scale(0.015625)"/>
      </defs>
      <use xlink:href="#DejaVuSans-52"/>
      <use xlink:href="#DejaVuSans-65" transform="translate(64.982422 0)"/>
      <use xlink:href="#DejaVuSans-67" transform="translate(126.505859 0)"/>
      <use xlink:href="#DejaVuSans-69" transform="translate(189.982422 0)"/>
      <use xlink:href="#DejaVuSans-73" transform="translate(217.765625 0)"/>
      <use xlink:href="#DejaVuSans-74" transform="translate(269.865234 0)"/>
      <use xlink:href="#DejaVuSans-72" transform="translate(309.074219 0)"/>
      <use xlink:href="#DejaVuSans-79" transform="translate(350.1875 0)"/>
     </g>
    </g>
    <g id="line2d_37">
     <path d="M 636.817188 54.656563 
L 646.817188 54.656563 
L 656.817188 54.656563 
" style="fill: none; stroke: #1f77b4; stroke-width: 1.5; stroke-linecap: square"/>
     <g>
      <use xlink:href="#m2282ff0d6a" x="646.817188" y="54.656563" style="fill: #1f77b4; stroke: #1f77b4"/>
     </g>
    </g>
    <g id="text_22">
     <!-- ghcr.io -->
     <g transform="translate(664.817188 58.156563) scale(0.1 -0.1)">
      <defs>
       <path id="DejaVuSans-68" d="M 3513 2113 
L 3513 0 
L 2938 0 
L 2938 2094 
Q 2938 2591 2744 2837 
Q 2550 3084 2163 3084 
Q 1697 3084 1428 2787 
Q 1159 2491 1159 1978 
L 1159 0 
L 581 0 
L 581 4863 
L 1159 4863 
L 1159 2956 
Q 1366 3272 1645 3428 
Q 1925 3584 2291 3584 
Q 2894 3584 3203 3211 
Q 3513 2838 3513 2113 
z
" transform="scale(0.015625)"/>
       <path id="DejaVuSans-2e" d="M 684 794 
L 1344 794 
L 1344 0 
L 684 0 
L 684 794 
z
" transform="scale(0.015625)"/>
      </defs>
      <use xlink:href="#DejaVuSans-67"/>
      <use xlink:href="#DejaVuSans-68" transform="translate(63.476562 0)"/>
      <use xlink:href="#DejaVuSans-63" transform="translate(126.855469 0)"/>
      <use xlink:href="#DejaVuSans-72" transform="translate(181.835938 0)"/>
      <use xlink:href="#DejaVuSans-2e" transform="translate(213.824219 0)"/>
      <use xlink:href="#DejaVuSans-69" transform="translate(245.611328 0)"/>
      <use xlink:href="#DejaVuSans-6f" transform="translate(273.394531 0)"/>
     </g>
    </g>
    <g id="line2d_38">
     <path d="M 636.817188 69.334688 
L 646.817188 69.334688 
L 656.817188 69.334688 
" style="fill: none; stroke: #ff7f0e; stroke-width: 1.5; stroke-linecap: square"/>
     <g>
      <use xlink:href="#mb94b17d459" x="646.817188" y="69.334688" style="fill: #ff7f0e; stroke: #ff7f0e"/>
     </g>
    </g>
    <g id="text_23">
     <!-- quay.io -->
     <g transform="translate(664.817188 72.834688) scale(0.1 -0.1)">
      <defs>
       <path id="DejaVuSans-71" d="M 947 1747 
Q 947 1113 1208 752 
Q 1469 391 1925 391 
Q 2381 391 2643 752 
Q 2906 1113 2906 1747 
Q 2906 2381 2643 2742 
Q 2381 3103 1925 3103 
Q 1469 3103 1208 2742 
Q 947 2381 947 1747 
z
M 2906 525 
Q 2725 213 2448 61 
Q 2172 -91 1784 -91 
Q 1150 -91 751 415 
Q 353 922 353 1747 
Q 353 2572 751 3078 
Q 1150 3584 1784 3584 
Q 2172 3584 2448 3432 
Q 2725 3281 2906 2969 
L 2906 3500 
L 3481 3500 
L 3481 -1331 
L 2906 -1331 
L 2906 525 
z
" transform="scale(0.015625)"/>
      </defs>
      <use xlink:href="#DejaVuSans-71"/>
      <use xlink:href="#DejaVuSans-75" transform="translate(63.476562 0)"/>
      <use xlink:href="#DejaVuSans-61" transform="translate(126.855469 0)"/>
      <use xlink:href="#DejaVuSans-79" transform="translate(188.134766 0)"/>
      <use xlink:href="#DejaVuSans-2e" transform="translate(233.064453 0)"/>
      <use xlink:href="#DejaVuSans-69" transform="translate(264.851562 0)"/>
      <use xlink:href="#DejaVuSans-6f" transform="translate(292.634766 0)"/>
     </g>
    </g>
   </g>
  </g>
 </g>
 <defs>
  <clipPath id="p23ddfbc4f4">
   <rect x="44.57" y="26.88" width="664.63" height="345.200703"/>
  </clipPath>
 </defs>
</svg>
